<?xml version="1.0" encoding="UTF-8" standalone="no"?>
<!-- Created with Inkscape (http://www.inkscape.org/) -->

<svg
   version="1.1"
   id="svg1"
   width="1046.2169"
   height="288"
   viewBox="0 0 1046.217 288"
   sodipodi:docname="logo_with_text.svg"
   inkscape:version="1.3.2 (091e20e, 2023-11-25)"
   xmlns:inkscape="http://www.inkscape.org/namespaces/inkscape"
   xmlns:sodipodi="http://sodipodi.sourceforge.net/DTD/sodipodi-0.dtd"
   xmlns="http://www.w3.org/2000/svg"
   xmlns:svg="http://www.w3.org/2000/svg">
  <defs
     id="defs1">
    <rect
       x="402.49472"
       y="391.3143"
       width="287.49622"
       height="134.16492"
       id="rect7" />
    <rect
       x="520.68762"
       y="551.03442"
       width="634.08893"
       height="329.02347"
       id="rect5" />
    <rect
       x="193.26135"
       y="697.97693"
       width="749.0874"
       height="138.95651"
       id="rect1" />
    <rect
       x="344.99548"
       y="330.62067"
       width="812.97546"
       height="475.96597"
       id="rect14" />
  </defs>
  <sodipodi:namedview
     id="namedview1"
     pagecolor="#ffffff"
     bordercolor="#000000"
     borderopacity="0.25"
     inkscape:showpageshadow="2"
     inkscape:pageopacity="0.0"
     inkscape:pagecheckerboard="0"
     inkscape:deskcolor="#d1d1d1"
     inkscape:zoom="2.8280032"
     inkscape:cx="518.91738"
     inkscape:cy="181.57688"
     inkscape:window-width="1680"
     inkscape:window-height="936"
     inkscape:window-x="0"
     inkscape:window-y="25"
     inkscape:window-maximized="1"
     inkscape:current-layer="g1"
     showgrid="false" />
  <g
     inkscape:groupmode="layer"
     inkscape:label="Image"
     id="g1"
     transform="translate(-5.0022126,-3.195605)">
    <g
       id="g2"
       inkscape:label="flag"
       transform="translate(0.8055974,-291.48924)">
      <rect
         style="display:inline;opacity:1;fill:#00405f;fill-opacity:0.996078;stroke:#00405f;stroke-width:20;stroke-linecap:round;stroke-linejoin:round;stroke-dasharray:none;stroke-opacity:0.996078"
         id="rect11"
         width="268"
         height="268"
         x="14.196615"
         y="304.68484"
         inkscape:label="flag-bg" />
      <path
         style="opacity:1;fill:#ffa861;fill-opacity:0.992157;stroke:none;stroke-width:0;stroke-linecap:round;stroke-linejoin:round;stroke-dasharray:none;stroke-opacity:0.996078"
         d="m 27.951018,559.02044 77.464262,-78.26286 31.94403,-54.30484 58.29784,-34.33983 74.26986,-74.26986 -0.7986,241.97599 z"
         id="path11"
         sodipodi:nodetypes="ccccccc"
         inkscape:label="flag-fg" />
      <path
         style="display:none;opacity:1;fill:#ffa861;fill-opacity:0.992157;stroke:#7d405f;stroke-width:1;stroke-linecap:round;stroke-linejoin:round;stroke-dasharray:none;stroke-opacity:0.996078"
         d="M 289.89203,579.78406 7.9860064,297.87804"
         id="path12"
         inkscape:label="helper2" />
      <path
         style="display:none;opacity:1;fill:#ffa861;fill-opacity:0.992157;stroke:#7d405f;stroke-width:1;stroke-linecap:round;stroke-linejoin:round;stroke-dasharray:none;stroke-opacity:0.996078"
         d="M 7.1874057,578.98546 289.09343,298.67664"
         id="path13"
         inkscape:label="helper1" />
      <path
         style="opacity:1;fill:#003e5e;fill-opacity:0.992157;stroke:#003e5e;stroke-width:1;stroke-linecap:round;stroke-linejoin:round;stroke-dasharray:none;stroke-opacity:0.99215686"
         d="m 150.93552,441.62615 -33.73601,64.45065 62.6977,-36.50295 37.93667,-66.38719 z"
         id="path14"
         sodipodi:nodetypes="ccccc"
         inkscape:label="flag-cut" />
    </g>
    <path
       style="font-weight:600;font-size:213.333px;font-family:'DM Sans';-inkscape-font-specification:'DM Sans Semi-Bold';letter-spacing:-9.13px;fill:#00405e;stroke-opacity:0.996078"
       d="m 389.45702,172.66194 q -15.35998,0 -27.73329,-7.03999 -12.15998,-7.25332 -19.19997,-19.83997 -6.82665,-12.79998 -6.82665,-29.22662 0,-16.853304 7.03998,-29.43995 7.03999,-12.79998 19.19997,-19.839968 12.37332,-7.253322 27.73329,-7.253322 15.35998,0 27.51996,7.253322 12.37331,7.039988 19.19997,19.626635 7.03999,12.586646 7.03999,29.439953 0,16.85331 -7.03999,29.43995 -7.03999,12.58665 -19.4133,19.83997 -12.15998,7.03999 -27.51996,7.03999 z m 0,-21.9733 q 7.67999,0 13.86664,-3.83999 6.39999,-3.84 10.23999,-11.51998 3.83999,-7.67999 3.83999,-18.98664 0,-11.30665 -3.83999,-18.773303 -3.62666,-7.679988 -10.02665,-11.519982 -6.18666,-3.839994 -13.86665,-3.839994 -7.46665,0 -13.86664,3.839994 -6.39999,3.839994 -10.23998,11.519982 -3.84,7.466653 -3.84,18.773303 0,11.30665 3.84,18.98664 3.83999,7.67998 10.02665,11.51998 6.39999,3.83999 13.86664,3.83999 z m 71.50977,-32.85328 V 96.502062 h 88.31986 v 21.333298 z m 109.69659,52.26658 V 62.582116 h 22.6133 l 2.13333,14.719976 v 0 q 5.11999,-8.106654 13.43998,-12.586646 8.53332,-4.693326 19.4133,-4.693326 8.10665,0 14.50664,2.13333 6.61333,2.13333 11.51998,6.39999 5.12,4.266659 8.31999,10.666649 v 0 q 5.97333,-8.959986 15.57331,-14.079977 9.59998,-5.119992 20.90663,-5.119992 13.43998,0 22.82663,5.546658 9.38666,5.333324 14.29331,15.999974 4.90666,10.453317 4.90666,25.813288 v 62.7199 h -25.38662 v -60.1599 q 0,-13.653311 -5.54666,-20.906633 -5.54666,-7.253322 -16.42664,-7.253322 -7.46666,0 -13.22665,3.626661 -5.54665,3.626661 -8.74665,10.66665 -3.19999,6.826654 -3.19999,16.853304 v 57.17324 H 643.1966 v -60.1599 q 0,-13.653311 -5.54666,-20.906633 -5.54666,-7.253322 -16.63997,-7.253322 -7.03999,0 -12.79998,3.626661 -5.54666,3.626661 -8.74665,10.66665 -3.2,6.826654 -3.2,16.853304 v 57.17324 z m 224.25643,2.56 q -13.22664,0 -21.97329,-4.47999 -8.74666,-4.48 -13.01332,-11.94665 -4.26666,-7.46666 -4.26666,-16.21331 0,-10.23998 5.11999,-17.70664 5.33333,-7.46665 15.57331,-11.51998 10.23999,-4.26666 25.1733,-4.26666 h 27.09329 q 0,-8.533318 -2.34667,-14.079975 -2.34666,-5.759991 -7.25332,-8.53332 -4.90666,-2.773329 -12.58665,-2.773329 -8.74665,0 -14.9333,4.053327 -6.18666,3.839994 -7.67999,11.946648 h -25.1733 q 1.28,-11.519982 7.67999,-19.626636 6.39999,-8.319987 16.85331,-12.799979 10.66665,-4.693326 23.25329,-4.693326 15.14665,0 25.8133,5.333325 10.66665,5.119991 16.2133,14.933309 5.76,9.599985 5.76,23.253296 v 66.55989 h -21.75997 l -2.56,-17.27997 v 0 q -2.13333,4.26666 -5.54665,7.89332 -3.2,3.62666 -7.46666,6.39999 -4.26666,2.56 -9.81332,4.05333 -5.33332,1.49333 -12.15998,1.49333 z m 5.75999,-20.26663 q 6.18666,0 10.87999,-2.13333 4.90666,-2.34667 8.31998,-6.39999 3.62666,-4.26666 5.54666,-9.38666 1.92,-5.11999 2.56,-10.87998 v -0.42666 h -23.67997 q -7.46665,0 -12.37331,1.91999 -4.90666,1.92 -7.03999,5.33333 -2.13333,3.19999 -2.13333,7.67999 0,4.47999 2.13333,7.67998 2.13333,3.2 6.18666,4.90666 4.05333,1.70667 9.59998,1.70667 z m 116.73645,17.70663 q -10.87998,0 -18.98664,-3.41332 -7.89332,-3.41333 -12.37331,-11.30665 -4.47999,-7.89332 -4.47999,-21.3333 V 84.128748 H 863.22967 V 62.582116 h 18.34664 l 2.98666,-28.373288 h 22.6133 v 28.373288 h 29.22662 v 21.546632 h -29.22662 v 49.919922 q 0,8.10665 3.41333,11.30665 3.62666,2.98666 11.94664,2.98666 h 13.22665 v 21.75996 z m 81.53633,2.56 q -15.99997,0 -28.15996,-6.82666 -12.15998,-7.03998 -18.98663,-19.62663 -6.82666,-12.58665 -6.82666,-29.01329 0,-17.06664 6.61333,-29.866617 6.82665,-12.79998 18.98663,-20.053301 12.37332,-7.253322 28.58662,-7.253322 15.78669,0 27.51999,7.039989 11.7333,7.039988 18.1333,18.986636 6.4,11.733314 6.4,26.453295 0,2.13333 0,4.69332 0,2.56 -0.4267,5.33333 h -87.46653 v -16.42664 h 62.07993 q -0.4267,-11.733318 -7.8933,-18.346641 -7.4667,-6.826656 -18.56002,-6.826656 -7.89332,0 -14.50664,3.626661 -6.61333,3.626661 -10.45332,10.879983 -3.83999,7.039993 -3.83999,17.919973 v 6.18665 q 0,10.02666 3.62666,17.27998 3.83999,7.25332 10.23998,11.09331 6.61332,3.62666 14.71998,3.62666 8.95995,0 14.71995,-3.83999 5.9733,-3.83999 8.7467,-10.23998 h 26.0266 q -2.9867,10.02665 -9.8133,18.1333 -6.8267,7.89332 -16.8533,12.58665 -10.0267,4.47999 -22.61332,4.47999 z"
       id="text1"
       inkscape:label="title"
       aria-label="o-mate" />
    <path
       style="font-weight:bold;font-size:80px;font-family:'DM Sans';-inkscape-font-specification:'DM Sans Bold';letter-spacing:13.37px;word-spacing:0px;fill:#00405e;stroke-opacity:0.996078"
       d="m 365.17509,266.49125 q -8.16,0 -14.4,-3.68 -6.24,-3.68 -9.76,-10.16 -3.52,-6.56 -3.52,-15.12 0,-8.56 3.52,-15.04 3.52,-6.56 9.76,-10.24 6.24,-3.68 14.4,-3.68 8.24,0 14.48,3.68 6.24,3.68 9.68,10.24 3.52,6.48 3.52,15.04 0,8.56 -3.52,15.12 -3.44,6.48 -9.68,10.16 -6.24,3.68 -14.48,3.68 z m 0,-9.68 q 5.12,0 8.8,-2.32 3.76,-2.4 5.84,-6.72 2.08,-4.32 2.08,-10.24 0,-6 -2.08,-10.24 -2.08,-4.32 -5.84,-6.64 -3.68,-2.32 -8.8,-2.32 -5.04,0 -8.8,2.32 -3.76,2.32 -5.84,6.64 -2.08,4.24 -2.08,10.24 0,5.92 2.08,10.24 2.08,4.32 5.84,6.72 3.76,2.32 8.8,2.32 z m 50.25004,8.72 v -56 h 20.88 q 6.8,0 11.2,2.32 4.4,2.32 6.56,6.24 2.16,3.84 2.16,8.56 0,4.48 -2.08,8.4 -2.08,3.84 -6.56,6.24 -4.4,2.32 -11.36,2.32 h -10 v 21.92 z m 29.04,0 -11.52,-24.64 h 11.68 l 12.16,24.64 z m -18.24,-29.76 h 9.44 q 4.88,0 7.2,-2.4 2.32,-2.4 2.32,-6.32 0,-3.92 -2.32,-6.16 -2.24,-2.32 -7.2,-2.32 h -9.44 z m 53.05004,29.76 v -56 h 10.8 v 56 z m 35.12995,0 v -56 h 36.8 v 8.72 h -26 v 14.64 h 23.6 v 8.4 h -23.6 v 15.52 h 26 v 8.72 z m 60.01001,0 v -56 h 10.8 l 25.76,38.64 v 0 -38.64 h 10.8 v 56 h -10.8 l -25.76,-38.56 v 0 38.56 z m 84.73001,0 v -47.28 h -16.4 v -8.72 h 43.44 v 8.72 h -16.32 v 47.28 z m 48.09001,0 v -56 h 36.8 v 8.72 h -26 v 14.64 h 23.6 v 8.4 h -23.6 v 15.52 h 26 v 8.72 z m 60.01001,0 v -56 h 36.8 v 8.72 h -26 v 14.64 h 23.6 v 8.4 h -23.6 v 15.52 h 26 v 8.72 z m 60.01001,0 v -56 h 20.88 q 6.8,0 11.2,2.32 4.4,2.32 6.56,6.24 2.16,3.84 2.16,8.56 0,4.48 -2.08,8.4 -2.08,3.84 -6.56,6.24 -4.4,2.32 -11.36,2.32 h -10 v 21.92 z m 29.04,0 -11.52,-24.64 h 11.68 l 12.16,24.64 z m -18.24,-29.76 h 9.44 q 4.88,0 7.2,-2.4 2.32,-2.4 2.32,-6.32 0,-3.92 -2.32,-6.16 -2.24,-2.32 -7.2,-2.32 h -9.44 z m 53.05007,29.76 v -56 h 10.8 v 56 z m 35.12994,0 v -56 h 10.8 l 25.76,38.64 v 0 -38.64 h 10.8 v 56 h -10.8 l -25.76,-38.56 v 0 38.56 z m 96.25002,0.96 q -8,0 -13.92,-3.52 -5.92,-3.6 -9.20002,-10 -3.28,-6.48 -3.28,-15.04 0,-8.64 3.36,-15.2 3.36002,-6.64 9.68002,-10.4 6.32,-3.76 15.12,-3.76 9.84,0 16.32,4.72 6.56,4.72 8.48,13.12 h -12.08 q -1.2,-3.68 -4.48,-5.76 -3.2,-2.16 -8.32,-2.16 -5.44,0 -9.28,2.4 -3.84,2.4 -5.84,6.72 -2,4.32 -2,10.32 0,6.08 2,10.32 2,4.24 5.68,6.48 3.76,2.16 8.8,2.16 7.36,0 11.12,-3.92 3.84,-4 4.56,-10.32 h -13.76 v -8.08 h 24.64 v 30.96 h -10 l -0.8,-7.12 v 0 q -1.76,2.64 -4.16,4.48 -2.32,1.76 -5.44,2.64 -3.12,0.96 -7.2,0.96 z"
       id="text2"
       inkscape:label="subtitle"
       aria-label="ORIENTEERING" />
  </g>
</svg>
